 <svg  version="1.0" xmlns="http://www.w3.org/2000/svg"  width="300.000000pt" height="302.000000pt" viewBox="0 0 300.000000 302.000000"  preserveAspectRatio="xMidYMid meet">  <g transform="translate(0.000000,302.000000) scale(0.100000,-0.100000)" fill="#ae0000" stroke="none"> <path d="M965 2870 c-60 -12 -128 -44 -167 -79 -20 -17 -39 -31 -43 -31 -4 0 -5 19 -1 43 l7 42 -49 -48 c-59 -58 -117 -152 -139 -227 l-17 -55 -9 35 c-17 66 -19 67 -40 20 -32 -71 -36 -220 -7 -309 12 -38 34 -83 48 -101 l27 -32 -4 53 c-3 57 15 160 34 185 10 15 16 8 43 -49 31 -68 98 -144 149 -170 l29 -15 0 61 c1 146 14 288 29 324 19 45 58 89 98 110 34 17 127 19 159 3 72 -38 118 -121 118 -215 0 -47 -25 -138 -47 -171 -14 -23 -12 -26 93 -129 60 -58 111 -105 115 -105 10 0 66 93 95 158 92 208 66 418 -71 570 -99 110 -286 165 -450 132z"/> <path d="M895 2355 c-15 -37 -20 -74 -20 -147 l0 -98 53 -46 c45 -39 92 -106 92 -130 0 -3 -18 12 -39 34 -21 22 -72 59 -112 83 -125 72 -189 119 -219 160 l-28 40 -6 -28 c-4 -15 0 -54 9 -86 8 -32 15 -59 15 -61 0 -2 -19 0 -42 5 -24 4 -63 8 -88 8 l-45 0 30 -26 c44 -39 75 -84 75 -110 0 -26 -38 -55 -157 -121 -43 -23 -89 -52 -103 -62 l-25 -20 50 6 c66 8 128 -10 156 -44 18 -23 20 -36 16 -93 l-4 -67 73 50 c40 27 103 62 139 77 56 24 63 29 43 35 -13 3 -35 6 -50 6 -36 0 -35 13 1 40 82 58 227 97 302 81 l34 -7 -45 -7 c-56 -9 -168 -46 -175 -57 -3 -5 9 -12 27 -15 18 -4 44 -12 57 -17 23 -8 23 -9 -20 -37 -47 -30 -75 -58 -105 -106 -19 -29 -19 -29 1 -21 83 32 191 9 226 -48 28 -47 26 -123 -7 -171 l-25 -37 46 7 c43 6 46 5 37 -12 -6 -10 -23 -31 -38 -46 -32 -33 -23 -34 51 -6 54 20 125 71 125 90 0 5 -11 9 -24 9 -36 0 -50 24 -43 74 6 41 5 43 -18 38 -34 -6 -43 35 -22 99 l15 49 -26 6 c-15 3 -40 9 -57 13 -29 7 -27 8 25 20 66 14 195 19 231 9 35 -10 42 -31 24 -75 -8 -19 -15 -37 -15 -39 0 -2 23 -4 50 -4 93 0 150 -44 150 -116 l0 -27 26 24 c41 37 73 94 89 156 24 92 21 101 -20 64 -41 -36 -55 -39 -55 -12 0 11 -11 28 -24 38 -17 14 -24 32 -28 70 -9 92 -46 148 -193 294 -150 148 -187 198 -208 279 l-15 55 -12 -45 c-7 -25 -10 -67 -7 -93 4 -47 8 -53 124 -166 97 -93 163 -176 163 -204 0 -1 -78 74 -173 168 -182 180 -223 235 -236 323 l-7 47 -19 -50z m355 -525 c26 -18 70 -78 70 -94 0 -10 -39 -7 -61 4 -18 10 -59 78 -59 100 0 16 19 12 50 -10z"/> <path d="M2193 1961 c-29 -16 -76 -49 -105 -74 -29 -24 -63 -50 -76 -56 -42 -22 -56 9 -25 56 17 26 17 26 -5 14 -60 -32 -193 -193 -228 -276 -21 -52 -18 -52 39 2 108 103 315 194 433 192 l59 -1 -55 -12 c-121 -27 -204 -65 -315 -144 -74 -53 -215 -190 -265 -258 l-30 -41 24 -11 c12 -5 51 -33 85 -62 34 -29 64 -50 66 -48 1 1 21 39 43 84 51 102 150 250 205 306 69 71 124 93 237 93 74 0 102 -4 122 -17 26 -17 28 -17 90 11 77 35 161 53 250 55 38 0 68 3 68 6 0 3 -24 22 -53 44 -154 113 -295 139 -465 86 -35 -11 -68 -18 -73 -14 -19 11 -8 43 24 68 43 35 15 33 -50 -3z"/> <path d="M390 1623 c-66 -74 -152 -203 -185 -277 -14 -31 -25 -59 -25 -61 0 -3 23 11 50 31 28 20 53 34 56 31 3 -3 -1 -21 -10 -40 -88 -212 -39 -567 100 -724 l33 -38 1 47 0 47 78 -78 c55 -56 97 -89 147 -113 128 -64 166 -73 310 -72 113 0 141 4 210 27 136 45 266 137 353 249 41 54 142 215 142 227 0 7 -205 181 -213 181 -3 0 -26 -29 -51 -64 -55 -77 -147 -162 -218 -202 -48 -26 -62 -29 -144 -29 -83 0 -94 2 -140 30 -61 38 -117 111 -139 182 -13 41 -16 78 -13 151 6 123 37 204 125 320 35 46 63 85 63 88 0 2 -18 4 -40 4 -48 0 -100 -20 -149 -57 l-34 -26 6 47 c4 26 16 68 26 92 11 24 17 44 13 44 -27 0 -196 -114 -264 -179 -21 -19 -40 -33 -42 -30 -3 2 0 36 5 74 19 134 22 175 11 175 -6 0 -34 -26 -62 -57z"/> <path d="M1176 1538 c4 -24 25 -51 76 -99 69 -64 71 -68 79 -128 5 -34 18 -79 28 -100 21 -40 22 -41 215 -200 161 -134 166 -143 166 -312 0 -103 4 -132 21 -169 23 -51 61 -95 101 -116 38 -20 39 -18 22 21 -20 49 -18 121 7 172 11 24 24 43 29 43 4 0 10 -18 14 -39 16 -100 90 -202 178 -247 60 -31 150 -43 231 -32 67 9 190 63 222 98 18 20 18 20 -41 20 -63 1 -117 16 -161 46 l-28 19 82 6 c226 17 369 199 308 394 -35 111 -157 206 -285 221 l-55 7 41 -31 c124 -91 88 -250 -68 -297 -49 -14 -138 -21 -138 -10 0 3 12 24 27 46 51 78 41 204 -23 276 l-33 38 -1 -33 c-1 -101 -102 -163 -191 -116 -17 8 -101 74 -187 145 -86 72 -170 137 -186 146 -16 8 -57 18 -90 20 -71 6 -91 21 -101 70 -14 76 -44 103 -116 103 -40 0 -108 29 -120 51 -16 30 -29 22 -23 -13z"/> </g> </svg> 